<?xml version="1.0" encoding="UTF-8"?>
<svg xmlns="http://www.w3.org/2000/svg" xmlns:xlink="http://www.w3.org/1999/xlink" width="35px" height="35px" viewBox="0 0 35 35" version="1.1">
<g id="surface1">
<path style=" stroke:none;fill-rule:nonzero;fill:rgb(3.921569%,3.921569%,3.137255%);fill-opacity:1;" d="M 17.5 3.152344 C 22.171875 3.152344 22.726562 3.171875 24.570312 3.253906 C 26.277344 3.332031 27.203125 3.617188 27.820312 3.859375 C 28.636719 4.175781 29.222656 4.554688 29.832031 5.167969 C 30.445312 5.777344 30.824219 6.363281 31.140625 7.179688 C 31.382812 7.796875 31.667969 8.722656 31.746094 10.429688 C 31.828125 12.273438 31.847656 12.828125 31.847656 17.5 C 31.847656 22.171875 31.828125 22.726562 31.746094 24.570312 C 31.667969 26.277344 31.382812 27.203125 31.140625 27.820312 C 30.824219 28.636719 30.445312 29.222656 29.832031 29.832031 C 29.222656 30.445312 28.636719 30.824219 27.820312 31.140625 C 27.203125 31.382812 26.277344 31.667969 24.570312 31.746094 C 22.726562 31.828125 22.171875 31.847656 17.5 31.847656 C 12.828125 31.847656 12.273438 31.828125 10.429688 31.746094 C 8.722656 31.667969 7.796875 31.382812 7.179688 31.140625 C 6.363281 30.824219 5.777344 30.445312 5.167969 29.832031 C 4.554688 29.222656 4.175781 28.636719 3.859375 27.820312 C 3.617188 27.203125 3.332031 26.277344 3.253906 24.570312 C 3.171875 22.726562 3.152344 22.171875 3.152344 17.5 C 3.152344 12.828125 3.171875 12.273438 3.253906 10.429688 C 3.332031 8.722656 3.617188 7.796875 3.859375 7.179688 C 4.175781 6.363281 4.554688 5.777344 5.167969 5.167969 C 5.777344 4.554688 6.363281 4.175781 7.179688 3.859375 C 7.796875 3.617188 8.722656 3.332031 10.429688 3.253906 C 12.273438 3.171875 12.828125 3.152344 17.5 3.152344 M 17.5 0 C 12.746094 0 12.152344 0.0195312 10.285156 0.105469 C 8.421875 0.191406 7.148438 0.484375 6.035156 0.917969 C 4.886719 1.367188 3.910156 1.964844 2.9375 2.9375 C 1.964844 3.910156 1.367188 4.886719 0.917969 6.035156 C 0.484375 7.148438 0.191406 8.421875 0.105469 10.285156 C 0.0195312 12.152344 0 12.746094 0 17.5 C 0 22.253906 0.0195312 22.847656 0.105469 24.714844 C 0.191406 26.578125 0.484375 27.851562 0.917969 28.964844 C 1.367188 30.113281 1.964844 31.089844 2.9375 32.0625 C 3.910156 33.035156 4.886719 33.632812 6.035156 34.082031 C 7.148438 34.515625 8.421875 34.808594 10.285156 34.894531 C 12.152344 34.980469 12.746094 35 17.5 35 C 22.253906 35 22.847656 34.980469 24.714844 34.894531 C 26.578125 34.808594 27.851562 34.515625 28.964844 34.082031 C 30.113281 33.632812 31.089844 33.035156 32.0625 32.0625 C 33.035156 31.089844 33.632812 30.113281 34.082031 28.964844 C 34.515625 27.851562 34.808594 26.578125 34.894531 24.714844 C 34.980469 22.847656 35 22.253906 35 17.5 C 35 12.746094 34.980469 12.152344 34.894531 10.285156 C 34.808594 8.421875 34.515625 7.148438 34.082031 6.035156 C 33.632812 4.886719 33.035156 3.910156 32.0625 2.9375 C 31.089844 1.964844 30.113281 1.367188 28.964844 0.917969 C 27.851562 0.484375 26.578125 0.191406 24.714844 0.105469 C 22.847656 0.0195312 22.253906 0 17.5 0 Z M 17.5 8.511719 C 12.535156 8.511719 8.511719 12.535156 8.511719 17.5 C 8.511719 22.464844 12.535156 26.488281 17.5 26.488281 C 22.464844 26.488281 26.488281 22.464844 26.488281 17.5 C 26.488281 12.535156 22.464844 8.511719 17.5 8.511719 Z M 17.5 23.332031 C 14.277344 23.332031 11.667969 20.722656 11.667969 17.5 C 11.667969 14.277344 14.277344 11.667969 17.5 11.667969 C 20.722656 11.667969 23.332031 14.277344 23.332031 17.5 C 23.332031 20.722656 20.722656 23.332031 17.5 23.332031 Z M 28.941406 8.160156 C 28.941406 9.316406 28 10.257812 26.839844 10.257812 C 25.683594 10.257812 24.742188 9.316406 24.742188 8.160156 C 24.742188 7 25.683594 6.058594 26.839844 6.058594 C 28 6.058594 28.941406 7 28.941406 8.160156 Z M 28.941406 8.160156 "/>
</g>
</svg>
