<?xml version="1.0" encoding="UTF-8"?>
<svg xmlns="http://www.w3.org/2000/svg" xmlns:xlink="http://www.w3.org/1999/xlink" width="1688px" height="1688px" viewBox="0 0 1688 1688" version="1.1">
<g id="surface1">
<path style=" stroke:none;fill-rule:nonzero;fill:rgb(91.764706%,29.411765%,45.098039%);fill-opacity:1;" d="M 0 844 L 0 1688 L 1683.5 1688 L 1683.5 0 L 0 0 Z M 952.03125 228.21875 C 976.789062 231.820312 1020.453125 243.070312 1048.8125 252.523438 C 1077.167969 262.425781 1103.726562 270.980469 1107.328125 271.429688 C 1110.929688 271.878906 1114.980469 273.679688 1116.332031 275.03125 C 1117.679688 276.832031 1130.734375 284.035156 1146.039062 291.6875 C 1250.921875 344.351562 1357.152344 445.632812 1419.269531 551.414062 C 1509.746094 706.257812 1532.703125 904.769531 1480.039062 1082.570312 C 1463.382812 1139.738281 1425.121094 1218.0625 1387.3125 1272.527344 C 1357.601562 1314.839844 1299.535156 1378.308594 1268.476562 1401.714844 C 1259.023438 1408.917969 1252.722656 1416.121094 1254.070312 1418.371094 C 1255.421875 1420.621094 1253.621094 1421.070312 1250.019531 1419.71875 C 1245.96875 1418.371094 1240.117188 1421.519531 1236.066406 1427.824219 C 1232.015625 1433.675781 1227.0625 1437.726562 1225.261719 1437.726562 C 1223.460938 1437.277344 1213.109375 1443.128906 1201.855469 1450.78125 C 1173.046875 1470.585938 1096.976562 1507.496094 1060.964844 1519.199219 C 1044.308594 1524.601562 1032.15625 1530.453125 1033.957031 1532.703125 C 1036.207031 1534.503906 1035.308594 1534.953125 1032.15625 1533.605469 C 1029.453125 1531.804688 1010.097656 1534.503906 989.394531 1539.457031 C 927.273438 1554.308594 842.199219 1560.164062 780.53125 1553.859375 C 725.613281 1548.007812 664.398438 1535.855469 631.085938 1524.152344 C 620.734375 1520.550781 610.378906 1516.949219 608.582031 1516.5 C 592.375 1511.996094 528.007812 1481.839844 511.800781 1471.035156 C 505.050781 1466.085938 499.648438 1463.832031 499.648438 1466.085938 C 499.648438 1467.886719 497.847656 1467.433594 496.046875 1465.183594 C 494.246094 1462.484375 478.492188 1450.78125 460.488281 1439.078125 C 304.289062 1334.195312 202.558594 1168.546875 175.550781 973.1875 C 162.046875 878.660156 176.453125 752.621094 211.113281 657.644531 C 218.765625 636.9375 223.714844 618.03125 221.914062 615.332031 C 220.566406 613.082031 221.015625 612.179688 223.714844 613.53125 C 227.316406 615.78125 239.019531 595.527344 244.871094 576.171875 C 247.574219 568.96875 275.480469 525.753906 293.035156 501.449219 C 304.742188 486.144531 314.644531 471.289062 315.542969 468.589844 C 318.695312 460.488281 388.015625 391.617188 415.023438 370.460938 C 429.425781 359.207031 439.78125 347.953125 437.980469 345.253906 C 436.628906 343 437.53125 342.101562 439.78125 343.453125 C 442.480469 345.253906 458.6875 337.148438 475.339844 325.898438 C 534.757812 285.835938 607.679688 254.777344 686.902344 235.871094 C 770.628906 215.613281 857.054688 213.363281 952.03125 228.21875 Z M 952.03125 228.21875 "/>
<path style=" stroke:none;fill-rule:nonzero;fill:rgb(91.764706%,29.411765%,45.098039%);fill-opacity:1;" d="M 783.230469 256.574219 C 663.496094 266.480469 551.863281 309.691406 452.835938 384.414062 C 410.070312 416.375 333.097656 499.199219 333.097656 512.703125 C 333.097656 514.953125 331.296875 517.652344 329.496094 518.554688 C 324.097656 520.804688 288.984375 578.421875 277.28125 604.078125 C 230.917969 708.058594 212.914062 799.886719 217.414062 912.871094 C 221.015625 1010.097656 240.371094 1092.472656 278.632812 1172.597656 C 304.289062 1226.613281 331.75 1270.726562 337.601562 1267.125 C 340.300781 1265.773438 340.75 1267.125 339.402344 1270.726562 C 338.050781 1274.777344 341.199219 1280.628906 347.503906 1284.679688 C 352.90625 1288.730469 356.054688 1291.882812 354.253906 1291.882812 C 352.453125 1291.882812 370.007812 1311.6875 393.417969 1335.996094 C 430.777344 1374.707031 450.582031 1390.011719 517.652344 1434.125 C 537.007812 1446.730469 596.425781 1474.1875 630.1875 1486.339844 C 699.058594 1510.648438 801.6875 1524.601562 873.257812 1519.199219 C 1038.90625 1507.496094 1169.445312 1449.878906 1278.378906 1341.398438 C 1320.242188 1299.085938 1372.90625 1232.015625 1372.90625 1220.3125 C 1372.90625 1218.0625 1374.707031 1215.359375 1376.507812 1214.460938 C 1381.910156 1212.210938 1415.667969 1140.636719 1428.273438 1104.628906 C 1453.929688 1033.054688 1460.683594 986.691406 1460.683594 886.761719 C 1460.234375 808.890625 1458.882812 787.28125 1450.328125 748.570312 C 1434.125 673.847656 1408.015625 608.128906 1367.957031 540.160156 C 1335.09375 484.34375 1261.722656 407.371094 1201.40625 365.058594 C 1163.59375 338.5 1090.671875 300.238281 1084.371094 304.289062 C 1082.121094 305.640625 1080.320312 304.742188 1080.320312 302.488281 C 1080.320312 297.089844 1018.203125 276.832031 974.539062 267.828125 C 941.679688 261.078125 852.550781 251.625 832.746094 252.523438 C 826.445312 252.976562 804.386719 254.777344 783.230469 256.574219 Z M 1285.128906 611.28125 C 1286.929688 616.234375 1281.53125 624.785156 1268.027344 637.390625 L 1248.667969 656.292969 L 1283.332031 761.625 C 1302.234375 819.242188 1317.539062 866.957031 1317.089844 867.40625 C 1317.089844 867.40625 1310.789062 868.757812 1303.585938 869.65625 C 1291.433594 871.007812 1290.53125 869.65625 1281.078125 839.5 L 1271.175781 807.988281 L 1239.21875 806.640625 L 1206.808594 805.289062 L 1197.355469 837.246094 C 1187.902344 868.308594 1187.902344 868.757812 1172.148438 868.757812 C 1158.644531 868.757812 1157.292969 867.855469 1160.445312 860.65625 C 1165.394531 851.652344 1192.402344 773.328125 1194.652344 761.625 C 1195.105469 757.574219 1198.253906 748.570312 1200.957031 742.269531 C 1205.007812 732.367188 1213.558594 703.109375 1217.609375 686.453125 C 1221.660156 667.546875 1229.3125 657.644531 1236.515625 660.34375 C 1244.167969 663.046875 1244.167969 662.597656 1236.964844 654.042969 C 1232.464844 649.09375 1228.863281 643.691406 1228.863281 641.890625 C 1228.863281 635.589844 1271.625 599.578125 1276.578125 601.828125 C 1279.730469 602.730469 1283.332031 607.230469 1285.128906 611.28125 Z M 485.242188 663.945312 C 513.601562 672.5 545.113281 702.207031 552.765625 728.316406 C 568.519531 780.980469 547.8125 835.898438 503.25 859.753906 C 476.242188 874.160156 428.527344 874.609375 402.417969 861.105469 C 357.40625 837.246094 339.402344 794.035156 349.304688 733.71875 C 353.355469 708.511719 384.414062 676.101562 414.121094 666.199219 C 444.28125 655.394531 455.535156 655.394531 485.242188 663.945312 Z M 705.808594 750.371094 C 704.457031 846.25 703.109375 852.101562 679.25 866.054688 C 652.691406 881.8125 609.929688 867.40625 604.527344 841.300781 C 603.179688 834.097656 601.828125 827.34375 601.378906 825.542969 C 601.378906 823.742188 605.429688 820.59375 611.28125 818.792969 C 619.832031 815.640625 622.085938 816.992188 625.234375 825.09375 C 634.6875 849.402344 663.945312 853.902344 674.75 833.195312 C 677.902344 827.796875 679.703125 791.785156 679.703125 743.171875 L 679.703125 661.695312 L 707.609375 661.695312 Z M 871.007812 669.347656 C 872.808594 673.847656 875.058594 681.5 875.960938 686.902344 C 876.859375 692.304688 889.914062 733.71875 904.769531 779.179688 C 919.621094 824.644531 931.777344 863.355469 931.777344 865.15625 C 931.777344 867.40625 925.925781 868.757812 918.273438 868.757812 C 906.117188 868.757812 904.316406 866.957031 899.816406 848.5 C 897.117188 837.246094 893.066406 828.246094 890.8125 828.246094 C 888.5625 828.246094 888.113281 825.542969 889.011719 822.394531 C 893.964844 809.789062 884.0625 805.289062 852.550781 806.640625 L 821.945312 807.988281 L 812.941406 838.148438 C 804.839844 867.855469 803.9375 868.757812 789.984375 868.757812 L 775.578125 868.757812 L 799.4375 795.835938 C 812.492188 755.773438 822.394531 722.015625 821.492188 720.664062 C 820.144531 719.761719 821.042969 716.613281 823.292969 713.910156 C 825.09375 711.210938 830.496094 698.15625 834.546875 685.101562 C 841.75 664.398438 844 661.695312 855.253906 661.695312 C 862.90625 661.695312 868.757812 664.847656 871.007812 669.347656 Z M 1030.804688 753.972656 L 1030.804688 846.25 L 1114.980469 846.25 L 1113.179688 857.054688 C 1110.929688 867.855469 1110.027344 868.308594 1057.363281 869.65625 L 1003.796875 871.007812 L 1003.796875 661.695312 L 1030.804688 661.695312 Z M 399.71875 908.820312 C 413.222656 909.269531 412.320312 917.371094 398.367188 920.972656 C 388.015625 923.671875 387.566406 925.472656 386.214844 964.636719 C 385.3125 988.492188 383.0625 1006.046875 380.363281 1006.046875 C 377.660156 1006.046875 375.410156 988.492188 374.511719 964.636719 C 373.160156 925.472656 372.710938 923.671875 362.355469 920.972656 C 356.054688 919.171875 351.105469 916.472656 351.105469 913.769531 C 351.105469 909.71875 370.460938 906.117188 382.613281 907.46875 C 386.214844 908.367188 393.867188 908.820312 399.71875 908.820312 Z M 488.394531 914.222656 C 488.394531 918.722656 482.542969 920.523438 470.390625 920.523438 C 453.285156 920.523438 452.382812 921.421875 451.035156 935.378906 C 449.683594 950.230469 450.132812 950.679688 464.539062 948.882812 C 475.339844 947.980469 479.390625 949.332031 479.390625 954.28125 C 479.390625 958.785156 474.890625 960.585938 464.988281 960.585938 C 451.035156 960.132812 450.132812 960.585938 450.132812 976.339844 C 450.132812 992.09375 450.582031 992.992188 465.886719 992.542969 C 474.441406 992.09375 483.894531 993.445312 486.59375 995.246094 C 497.398438 1001.546875 485.695312 1006.5 460.488281 1006.046875 L 434.378906 1006.046875 L 434.378906 958.785156 C 434.378906 932.675781 434.378906 910.621094 434.828125 909.269531 C 435.277344 907.917969 447.433594 907.46875 462.285156 907.46875 C 481.191406 907.917969 488.394531 910.167969 488.394531 914.222656 Z M 625.683594 914.222656 C 625.683594 916.472656 619.832031 918.273438 612.632812 918.273438 C 591.476562 918.273438 585.171875 922.773438 585.171875 936.726562 C 585.171875 948.429688 586.523438 949.78125 600.929688 949.78125 C 609.480469 949.78125 616.683594 951.582031 616.683594 953.832031 C 616.683594 956.082031 609.480469 959.234375 600.929688 960.585938 C 586.523438 963.285156 585.171875 965.085938 585.171875 979.039062 C 585.171875 994.34375 585.171875 994.792969 604.527344 993.445312 C 618.484375 992.992188 623.433594 994.34375 623.433594 998.847656 C 623.433594 1003.796875 616.683594 1005.148438 596.425781 1005.597656 L 569.867188 1006.046875 L 570.320312 956.535156 C 570.769531 929.074219 571.21875 907.019531 571.21875 907.019531 C 594.175781 907.019531 625.683594 911.070312 625.683594 914.222656 Z M 670.699219 910.167969 C 673.398438 913.320312 681.050781 923.671875 688.703125 933.125 L 701.757812 950.230469 L 703.109375 928.625 C 704.007812 913.320312 706.257812 907.019531 711.210938 907.019531 C 715.261719 907.019531 717.511719 911.070312 717.0625 916.921875 C 717.0625 922.773438 716.613281 945.28125 716.164062 967.785156 C 715.710938 1001.546875 714.8125 1007.398438 708.960938 1005.597656 C 704.910156 1003.796875 702.207031 997.046875 702.207031 989.394531 C 702.207031 980.839844 696.804688 968.6875 687.804688 957.433594 L 672.949219 938.976562 L 670.699219 972.289062 C 668.898438 997.496094 666.648438 1006.046875 662.144531 1006.046875 C 656.746094 1006.046875 655.84375 996.59375 656.292969 956.535156 C 656.292969 929.074219 656.746094 906.570312 656.746094 905.667969 C 657.644531 902.515625 666.648438 905.667969 670.699219 910.167969 Z M 801.238281 955.632812 C 816.089844 997.945312 816.992188 1003.796875 809.789062 1003.796875 C 805.289062 1003.796875 800.335938 998.394531 797.1875 990.292969 C 793.585938 979.488281 789.984375 976.789062 780.082031 976.789062 C 769.726562 976.789062 766.125 979.488281 762.074219 990.292969 C 759.375 997.496094 753.972656 1003.796875 749.921875 1003.796875 C 745.871094 1003.796875 742.71875 1002.898438 742.71875 1001.996094 C 742.71875 1000.644531 766.125 928.175781 771.980469 910.167969 C 776.929688 896.214844 785.933594 910.167969 801.238281 955.632812 Z M 865.605469 916.921875 C 869.207031 924.125 874.609375 937.628906 877.761719 947.53125 C 880.910156 957.433594 884.960938 967.335938 886.761719 969.136719 C 888.5625 971.386719 894.863281 959.683594 900.71875 943.03125 C 910.167969 915.570312 920.074219 900.71875 925.023438 905.667969 C 928.625 909.269531 940.777344 999.746094 938.527344 1004.246094 C 932.675781 1013.25 927.726562 1006.949219 925.023438 986.691406 C 918.722656 942.128906 916.472656 940.777344 904.769531 972.738281 C 898.917969 988.492188 893.066406 1003.347656 890.8125 1005.597656 C 886.761719 1010.097656 880.460938 998.847656 870.558594 969.585938 C 866.507812 957.433594 862.003906 945.730469 860.203125 943.929688 C 856.152344 939.878906 849.402344 993.445312 853.003906 999.296875 C 855.703125 1003.347656 841.75 1009.648438 838.148438 1006.046875 C 835.898438 1003.796875 845.800781 914.222656 849.402344 907.917969 C 853.003906 901.617188 859.753906 904.769531 865.605469 916.921875 Z M 1050.160156 922.773438 C 1073.566406 948.882812 1063.664062 990.292969 1030.804688 1003.796875 C 1008.296875 1013.25 979.941406 1002.898438 970.488281 981.742188 C 956.535156 951.132812 966.886719 918.722656 994.792969 907.917969 C 1010.550781 901.617188 1037.558594 908.820312 1050.160156 922.773438 Z M 1121.730469 909.269531 C 1128.484375 909.269531 1137.035156 912.421875 1140.636719 916.472656 C 1150.089844 925.472656 1149.640625 947.082031 1140.636719 956.535156 C 1133.886719 963.285156 1133.886719 965.085938 1140.636719 982.640625 C 1149.640625 1006.046875 1149.640625 1008.75 1141.539062 1005.597656 C 1138.386719 1004.246094 1132.085938 995.246094 1127.585938 985.34375 C 1119.03125 966.886719 1103.277344 960.585938 1102.375 975.4375 C 1101.925781 979.941406 1101.476562 988.492188 1101.476562 994.792969 C 1101.027344 1001.097656 1097.875 1006.046875 1094.273438 1006.046875 C 1088.871094 1006.046875 1087.523438 997.046875 1087.972656 956.535156 C 1088.421875 929.074219 1088.871094 906.117188 1088.871094 905.21875 C 1089.324219 904.316406 1093.824219 904.769531 1099.675781 906.570312 C 1105.078125 907.917969 1114.980469 909.269531 1121.730469 909.269531 Z M 1237.867188 914.222656 C 1237.867188 917.820312 1227.511719 920.523438 1218.0625 918.722656 C 1206.355469 916.472656 1197.355469 924.125 1197.355469 936.726562 C 1197.355469 948.882812 1198.703125 949.78125 1213.109375 949.78125 C 1221.660156 949.78125 1228.863281 951.582031 1228.863281 954.28125 C 1228.863281 958.332031 1218.511719 960.585938 1203.207031 960.132812 C 1199.605469 959.683594 1197.355469 965.984375 1197.355469 976.789062 L 1197.355469 993.894531 L 1216.710938 992.992188 C 1230.214844 992.542969 1235.617188 994.34375 1235.617188 998.847656 C 1235.617188 1006.5 1184.300781 1009.648438 1183.402344 1001.996094 C 1182.949219 995.695312 1182.949219 907.019531 1183.402344 907.019531 C 1206.355469 907.019531 1237.867188 911.070312 1237.867188 914.222656 Z M 1298.183594 907.46875 C 1302.234375 908.820312 1305.386719 913.320312 1305.386719 916.921875 C 1305.386719 921.875 1302.234375 922.773438 1294.582031 920.972656 C 1275.679688 916.472656 1276.128906 927.273438 1295.933594 946.628906 C 1312.136719 961.933594 1314.839844 966.886719 1313.488281 980.839844 C 1312.589844 992.992188 1308.988281 998.394531 1299.984375 1003.796875 C 1288.730469 1009.648438 1286.03125 1009.648438 1275.226562 1003.796875 C 1262.175781 996.59375 1255.421875 981.289062 1265.324219 981.289062 C 1268.476562 981.289062 1274.328125 984.441406 1278.378906 988.042969 C 1282.878906 992.09375 1289.632812 993.894531 1293.683594 992.09375 C 1306.285156 987.140625 1301.785156 970.039062 1282.878906 952.480469 C 1263.523438 934.925781 1260.375 923.222656 1272.078125 911.96875 C 1279.277344 904.316406 1286.929688 902.96875 1298.183594 907.46875 Z M 881.359375 1105.976562 C 880.460938 1128.484375 878.210938 1141.089844 874.609375 1142.4375 C 870.109375 1143.789062 868.757812 1133.886719 868.757812 1103.726562 C 868.757812 1081.671875 870.109375 1062.316406 871.910156 1060.515625 C 878.660156 1053.761719 882.710938 1072.667969 881.359375 1105.976562 Z M 783.230469 1080.320312 C 783.230469 1085.269531 785.484375 1089.324219 787.734375 1089.324219 C 790.433594 1089.324219 792.234375 1092.472656 792.234375 1096.074219 C 792.234375 1099.675781 790.433594 1102.828125 787.734375 1102.828125 C 785.484375 1102.828125 783.230469 1111.828125 783.230469 1123.082031 C 783.230469 1134.335938 781.429688 1143.339844 778.730469 1143.339844 C 776.480469 1143.339844 774.230469 1135.6875 774.230469 1126.234375 C 774.230469 1116.78125 771.980469 1106.878906 768.828125 1103.726562 C 764.777344 1099.675781 764.777344 1096.976562 768.828125 1092.921875 C 771.980469 1089.773438 774.230469 1083.921875 774.230469 1079.417969 C 774.230469 1074.917969 776.480469 1071.316406 778.730469 1071.316406 C 781.429688 1071.316406 783.230469 1075.367188 783.230469 1080.320312 Z M 1019.101562 1075.367188 C 1020.453125 1077.621094 1018.652344 1081.671875 1015.050781 1084.820312 C 1010.550781 1088.421875 1008.296875 1098.777344 1008.296875 1116.78125 C 1008.296875 1131.636719 1006.5 1143.339844 1003.796875 1143.339844 C 997.046875 1143.339844 998.394531 1085.722656 1005.148438 1078.070312 C 1011.449219 1070.417969 1015.949219 1069.96875 1019.101562 1075.367188 Z M 639.640625 1098.777344 C 650.894531 1116.78125 637.839844 1146.488281 620.734375 1141.988281 C 615.332031 1140.636719 612.179688 1141.988281 611.730469 1146.039062 C 611.28125 1149.640625 610.378906 1154.140625 609.929688 1156.84375 C 609.480469 1159.09375 608.582031 1163.59375 608.128906 1166.296875 C 608.128906 1168.546875 605.878906 1169.445312 603.179688 1168.097656 C 600.929688 1166.746094 598.675781 1148.289062 598.675781 1127.585938 L 598.675781 1090.222656 L 617.132812 1091.125 C 627.035156 1091.574219 637.390625 1095.175781 639.640625 1098.777344 Z M 696.804688 1094.722656 C 699.058594 1097.875 702.207031 1109.128906 703.558594 1119.03125 C 706.257812 1137.488281 706.257812 1137.9375 690.503906 1140.1875 C 671.597656 1143.339844 663.496094 1140.636719 659.445312 1130.734375 C 655.84375 1121.28125 666.648438 1110.929688 681.5 1110.480469 C 687.804688 1110.027344 693.207031 1107.777344 693.207031 1105.527344 C 693.207031 1103.277344 687.355469 1102.828125 680.152344 1104.175781 C 664.847656 1107.328125 659.894531 1103.726562 666.648438 1095.175781 C 672.949219 1087.972656 690.503906 1087.523438 696.804688 1094.722656 Z M 744.96875 1098.324219 C 744.96875 1101.925781 741.820312 1104.628906 738.21875 1103.726562 C 734.167969 1103.277344 735.066406 1105.976562 741.820312 1111.378906 C 753.972656 1121.730469 754.421875 1134.785156 743.171875 1141.988281 C 736.417969 1146.039062 732.816406 1145.589844 725.164062 1140.636719 C 713.011719 1131.636719 717.0625 1124.433594 732.816406 1127.585938 C 744.519531 1129.835938 744.519531 1129.835938 734.617188 1124.882812 C 722.015625 1118.132812 716.613281 1099.226562 725.164062 1093.375 C 734.167969 1087.523438 744.96875 1090.671875 744.96875 1098.324219 Z M 847.152344 1096.976562 C 851.652344 1101.027344 855.253906 1107.777344 855.253906 1112.730469 C 855.253906 1119.03125 851.652344 1120.832031 836.796875 1120.832031 C 825.09375 1120.832031 819.691406 1122.632812 821.945312 1125.785156 C 823.742188 1128.484375 830.945312 1129.382812 839.949219 1127.585938 C 858.855469 1124.433594 860.203125 1131.636719 842.199219 1140.636719 C 830.046875 1146.941406 828.695312 1146.941406 817.441406 1136.585938 C 803.488281 1123.53125 802.585938 1110.480469 814.742188 1098.324219 C 825.542969 1087.523438 835.898438 1087.070312 847.152344 1096.976562 Z M 938.078125 1096.976562 C 952.480469 1108.679688 947.980469 1120.832031 929.074219 1120.832031 C 920.523438 1120.832031 913.769531 1123.082031 913.769531 1125.785156 C 913.769531 1128.933594 919.171875 1129.835938 929.523438 1128.035156 C 938.976562 1126.234375 945.28125 1126.683594 945.28125 1129.382812 C 945.28125 1134.785156 930.425781 1143.339844 920.972656 1143.339844 C 911.070312 1143.339844 895.765625 1127.132812 895.765625 1116.332031 C 895.765625 1105.527344 911.070312 1089.324219 920.972656 1089.324219 C 925.023438 1089.324219 932.675781 1092.921875 938.078125 1096.976562 Z M 981.289062 1096.976562 C 982.191406 1097.875 980.839844 1100.125 978.140625 1101.925781 C 974.988281 1103.726562 971.835938 1112.730469 971.386719 1122.183594 C 969.136719 1147.839844 961.035156 1141.988281 959.683594 1113.628906 C 958.332031 1089.324219 958.785156 1088.871094 968.6875 1091.574219 C 974.539062 1093.375 979.941406 1095.625 981.289062 1096.976562 Z M 1063.664062 1098.777344 C 1067.265625 1103.726562 1069.515625 1111.828125 1068.167969 1116.78125 C 1066.816406 1121.28125 1068.167969 1128.484375 1071.316406 1132.085938 C 1076.269531 1137.9375 1074.917969 1138.835938 1063.664062 1138.835938 C 1056.464844 1138.835938 1048.359375 1141.089844 1046.109375 1143.339844 C 1041.160156 1148.289062 1021.800781 1133.4375 1021.800781 1125.332031 C 1021.800781 1117.679688 1042.507812 1106.878906 1051.0625 1110.027344 C 1056.914062 1112.28125 1058.261719 1111.828125 1056.011719 1107.777344 C 1053.761719 1104.175781 1047.460938 1103.277344 1039.359375 1105.078125 C 1025.855469 1108.226562 1022.703125 1103.726562 1031.707031 1094.722656 C 1040.257812 1086.171875 1056.464844 1088.421875 1063.664062 1098.777344 Z M 512.25 1119.480469 C 482.992188 1120.382812 435.277344 1120.382812 406.46875 1119.480469 C 377.210938 1119.03125 401.070312 1118.132812 459.136719 1118.132812 C 517.203125 1118.132812 541.058594 1119.03125 512.25 1119.480469 Z M 1270.726562 1119.480469 C 1242.816406 1120.382812 1196.453125 1120.382812 1167.195312 1119.480469 C 1137.9375 1119.03125 1160.894531 1118.132812 1217.609375 1118.132812 C 1274.777344 1118.132812 1298.632812 1119.03125 1270.726562 1119.480469 Z M 1270.726562 1119.480469 "/>
<path style=" stroke:none;fill-rule:nonzero;fill:rgb(91.764706%,29.411765%,45.098039%);fill-opacity:1;" d="M 1227.0625 741.820312 C 1220.761719 762.527344 1215.359375 780.082031 1215.359375 781.429688 C 1215.359375 782.332031 1225.714844 783.230469 1237.867188 783.230469 C 1252.722656 783.230469 1260.375 781.429688 1260.375 777.378906 C 1260.375 774.679688 1255.421875 756.675781 1249.570312 738.21875 L 1239.21875 704.457031 Z M 1227.0625 741.820312 "/>
<path style=" stroke:none;fill-rule:nonzero;fill:rgb(91.764706%,29.411765%,45.098039%);fill-opacity:1;" d="M 427.625 688.703125 C 427.625 690.953125 429.425781 693.207031 431.679688 693.207031 C 434.378906 693.207031 437.53125 690.953125 438.878906 688.703125 C 440.230469 686.003906 438.429688 684.203125 434.828125 684.203125 C 430.777344 684.203125 427.625 686.003906 427.625 688.703125 Z M 427.625 688.703125 "/>
<path style=" stroke:none;fill-rule:nonzero;fill:rgb(91.764706%,29.411765%,45.098039%);fill-opacity:1;" d="M 463.636719 688.703125 C 463.636719 690.953125 468.136719 693.207031 473.992188 693.207031 C 479.84375 693.207031 486.59375 695.457031 489.296875 698.15625 C 491.996094 700.859375 496.945312 702.207031 500.546875 701.308594 C 503.699219 699.957031 498.746094 695.90625 488.84375 691.40625 C 468.589844 682.851562 463.636719 682.402344 463.636719 688.703125 Z M 463.636719 688.703125 "/>
<path style=" stroke:none;fill-rule:nonzero;fill:rgb(91.764706%,29.411765%,45.098039%);fill-opacity:1;" d="M 414.121094 692.753906 C 414.121094 695.007812 410.523438 698.15625 406.46875 699.058594 C 399.71875 700.859375 399.71875 701.308594 405.570312 701.757812 C 409.621094 701.757812 415.472656 699.058594 418.625 695.457031 C 422.675781 690.953125 422.675781 688.703125 419.074219 688.703125 C 416.375 688.703125 414.121094 690.503906 414.121094 692.753906 Z M 414.121094 692.753906 "/>
<path style=" stroke:none;fill-rule:nonzero;fill:rgb(91.764706%,29.411765%,45.098039%);fill-opacity:1;" d="M 441.582031 710.761719 C 438.878906 715.261719 438.429688 720.664062 440.230469 722.464844 C 442.03125 724.265625 438.429688 724.265625 432.128906 722.464844 C 419.972656 718.863281 419.523438 718.863281 410.070312 719.761719 C 405.570312 720.214844 404.667969 724.265625 406.921875 735.96875 C 409.171875 748.121094 408.722656 751.722656 403.769531 751.722656 C 400.167969 751.722656 394.765625 754.875 391.617188 758.476562 C 387.113281 763.425781 387.566406 766.578125 392.964844 771.980469 C 397.019531 775.578125 402.417969 778.730469 405.121094 778.730469 C 408.722656 778.730469 409.171875 783.230469 407.371094 792.683594 C 403.769531 809.339844 410.523438 816.089844 425.824219 810.238281 C 433.929688 807.089844 436.628906 807.988281 438.878906 814.742188 C 441.582031 823.742188 452.835938 829.597656 460.035156 825.542969 C 462.285156 824.195312 463.1875 819.691406 461.835938 816.089844 C 460.488281 812.492188 461.386719 811.140625 463.636719 812.492188 C 466.339844 813.839844 468.136719 812.941406 468.136719 810.238281 C 468.136719 807.089844 470.839844 806.640625 476.691406 810.238281 C 493.796875 819.242188 507.75 802.136719 494.246094 788.632812 C 490.195312 784.582031 491.09375 782.78125 497.847656 780.53125 C 519.902344 772.429688 521.253906 758.925781 500.546875 751.273438 C 491.996094 748.121094 490.644531 745.421875 494.246094 741.820312 C 501.449219 734.617188 501 721.5625 494.246094 718.863281 C 491.09375 717.960938 483.894531 718.414062 478.941406 720.664062 C 471.289062 723.363281 468.136719 722.015625 464.085938 713.011719 C 458.234375 699.957031 447.882812 699.058594 441.582031 710.761719 Z M 441.582031 710.761719 "/>
<path style=" stroke:none;fill-rule:nonzero;fill:rgb(91.764706%,29.411765%,45.098039%);fill-opacity:1;" d="M 382.613281 719.761719 C 377.210938 730.566406 376.761719 735.066406 382.164062 731.917969 C 386.214844 729.214844 392.066406 711.210938 388.914062 711.210938 C 388.015625 711.210938 385.3125 715.261719 382.613281 719.761719 Z M 382.613281 719.761719 "/>
<path style=" stroke:none;fill-rule:nonzero;fill:rgb(91.764706%,29.411765%,45.098039%);fill-opacity:1;" d="M 397.019531 720.214844 C 397.019531 726.515625 397.917969 728.765625 399.269531 725.613281 C 400.167969 722.914062 400.167969 717.511719 399.269531 714.363281 C 397.917969 711.660156 397.019531 713.910156 397.019531 720.214844 Z M 397.019531 720.214844 "/>
<path style=" stroke:none;fill-rule:nonzero;fill:rgb(91.764706%,29.411765%,45.098039%);fill-opacity:1;" d="M 513.152344 718.414062 C 513.152344 723.8125 516.304688 729.667969 520.355469 731.015625 C 524.855469 732.816406 526.65625 737.320312 525.304688 742.71875 C 523.957031 747.671875 524.855469 751.722656 527.105469 751.722656 C 533.859375 751.722656 531.609375 736.417969 522.15625 722.464844 C 514.050781 710.308594 513.152344 709.859375 513.152344 718.414062 Z M 513.152344 718.414062 "/>
<path style=" stroke:none;fill-rule:nonzero;fill:rgb(91.764706%,29.411765%,45.098039%);fill-opacity:1;" d="M 504.597656 722.914062 C 504.597656 727.867188 505.949219 729.214844 507.300781 725.613281 C 508.652344 722.464844 508.199219 718.414062 506.851562 717.0625 C 505.5 715.261719 504.148438 717.960938 504.597656 722.914062 Z M 504.597656 722.914062 "/>
<path style=" stroke:none;fill-rule:nonzero;fill:rgb(91.764706%,29.411765%,45.098039%);fill-opacity:1;" d="M 371.359375 752.171875 C 369.558594 754.875 369.109375 757.574219 370.460938 758.925781 C 371.359375 760.273438 373.609375 758.023438 374.960938 753.972656 C 378.113281 746.320312 375.410156 744.96875 371.359375 752.171875 Z M 371.359375 752.171875 "/>
<path style=" stroke:none;fill-rule:nonzero;fill:rgb(91.764706%,29.411765%,45.098039%);fill-opacity:1;" d="M 371.808594 781.882812 C 375.863281 798.988281 378.113281 800.789062 378.113281 786.382812 C 378.113281 780.082031 375.863281 773.328125 373.609375 771.980469 C 370.460938 770.179688 370.007812 773.328125 371.808594 781.882812 Z M 371.808594 781.882812 "/>
<path style=" stroke:none;fill-rule:nonzero;fill:rgb(91.764706%,29.411765%,45.098039%);fill-opacity:1;" d="M 524.855469 789.082031 C 526.207031 792.683594 523.957031 798.085938 519.902344 801.238281 C 516.304688 804.386719 513.152344 810.238281 513.152344 814.292969 C 513.152344 818.792969 516.304688 816.542969 522.15625 807.988281 C 532.058594 793.585938 533.859375 783.230469 526.65625 783.230469 C 524.40625 783.230469 523.503906 785.933594 524.855469 789.082031 Z M 524.855469 789.082031 "/>
<path style=" stroke:none;fill-rule:nonzero;fill:rgb(91.764706%,29.411765%,45.098039%);fill-opacity:1;" d="M 380.363281 805.738281 C 381.714844 807.988281 385.3125 810.238281 387.566406 810.238281 C 390.265625 810.238281 390.714844 807.988281 389.367188 805.738281 C 388.015625 803.039062 384.414062 801.238281 382.164062 801.238281 C 379.460938 801.238281 379.011719 803.039062 380.363281 805.738281 Z M 380.363281 805.738281 "/>
<path style=" stroke:none;fill-rule:nonzero;fill:rgb(91.764706%,29.411765%,45.098039%);fill-opacity:1;" d="M 396.566406 812.941406 C 396.566406 817.890625 397.917969 819.242188 399.269531 815.640625 C 400.617188 812.492188 400.167969 808.441406 398.816406 807.089844 C 397.46875 805.289062 396.117188 807.988281 396.566406 812.941406 Z M 396.566406 812.941406 "/>
<path style=" stroke:none;fill-rule:nonzero;fill:rgb(91.764706%,29.411765%,45.098039%);fill-opacity:1;" d="M 407.820312 834.546875 C 420.425781 843.550781 443.382812 849.402344 439.332031 842.199219 C 437.53125 839.5 432.128906 837.246094 427.625 837.246094 C 423.125 837.246094 417.722656 834.996094 416.375 832.746094 C 415.023438 830.046875 410.070312 828.246094 406.019531 828.246094 C 399.71875 828.246094 400.167969 829.597656 407.820312 834.546875 Z M 407.820312 834.546875 "/>
<path style=" stroke:none;fill-rule:nonzero;fill:rgb(91.764706%,29.411765%,45.098039%);fill-opacity:1;" d="M 488.394531 832.746094 C 487.042969 834.996094 480.742188 837.246094 474.890625 837.246094 C 469.039062 837.246094 462.738281 839.046875 461.386719 841.75 C 460.035156 844 462.285156 846.25 466.789062 846.25 C 477.589844 845.800781 508.652344 828.695312 498.746094 828.246094 C 494.695312 828.246094 489.746094 830.046875 488.394531 832.746094 Z M 488.394531 832.746094 "/>
<path style=" stroke:none;fill-rule:nonzero;fill:rgb(91.764706%,29.411765%,45.098039%);fill-opacity:1;" d="M 846.699219 725.613281 C 843.550781 735.96875 840.847656 748.121094 839.949219 751.722656 C 839.046875 755.324219 836.347656 763.425781 834.097656 769.726562 C 829.597656 780.53125 830.046875 780.980469 851.652344 782.332031 C 864.257812 783.230469 875.058594 782.78125 876.410156 781.882812 C 878.660156 779.179688 862.003906 723.8125 856.152344 712.5625 C 853.003906 707.609375 850.753906 710.761719 846.699219 725.613281 Z M 846.699219 725.613281 "/>
<path style=" stroke:none;fill-rule:nonzero;fill:rgb(91.764706%,29.411765%,45.098039%);fill-opacity:1;" d="M 774.230469 947.082031 C 768.378906 963.285156 768.378906 963.285156 778.730469 963.285156 C 786.382812 963.285156 787.28125 961.484375 785.03125 950.679688 C 780.980469 933.578125 779.632812 933.125 774.230469 947.082031 Z M 774.230469 947.082031 "/>
<path style=" stroke:none;fill-rule:nonzero;fill:rgb(91.764706%,29.411765%,45.098039%);fill-opacity:1;" d="M 998.847656 923.222656 C 987.140625 927.726562 976.789062 943.480469 976.789062 956.984375 C 976.789062 967.335938 990.292969 990.742188 994.792969 988.042969 C 997.046875 986.691406 999.746094 987.59375 1001.546875 990.292969 C 1006.5 998.394531 1026.753906 994.792969 1037.558594 983.542969 C 1066.367188 955.183594 1037.105469 908.820312 998.847656 923.222656 Z M 998.847656 923.222656 "/>
<path style=" stroke:none;fill-rule:nonzero;fill:rgb(91.764706%,29.411765%,45.098039%);fill-opacity:1;" d="M 1105.527344 921.421875 C 1100.125 926.824219 1102.828125 954.28125 1108.679688 954.28125 C 1130.285156 953.832031 1139.738281 943.03125 1130.734375 928.175781 C 1126.683594 921.875 1109.578125 917.371094 1105.527344 921.421875 Z M 1105.527344 921.421875 "/>
<path style=" stroke:none;fill-rule:nonzero;fill:rgb(91.764706%,29.411765%,45.098039%);fill-opacity:1;" d="M 615.332031 1105.976562 C 610.378906 1110.480469 611.730469 1124.433594 617.132812 1128.035156 C 619.832031 1129.382812 625.234375 1127.585938 629.285156 1123.984375 C 635.136719 1118.132812 635.136719 1115.429688 630.1875 1110.027344 C 623.886719 1102.375 619.832031 1101.027344 615.332031 1105.976562 Z M 615.332031 1105.976562 "/>
<path style=" stroke:none;fill-rule:nonzero;fill:rgb(91.764706%,29.411765%,45.098039%);fill-opacity:1;" d="M 670.699219 1124.882812 C 670.699219 1127.585938 674.75 1128.933594 679.703125 1128.484375 C 684.652344 1128.035156 688.703125 1126.234375 688.703125 1124.433594 C 688.703125 1122.632812 684.652344 1120.832031 679.703125 1120.832031 C 674.75 1120.832031 670.699219 1122.632812 670.699219 1124.882812 Z M 670.699219 1124.882812 "/>
<path style=" stroke:none;fill-rule:nonzero;fill:rgb(91.764706%,29.411765%,45.098039%);fill-opacity:1;" d="M 822.394531 1105.976562 C 821.042969 1108.226562 825.09375 1110.027344 830.945312 1110.027344 C 836.796875 1110.480469 840.398438 1109.128906 839.046875 1106.878906 C 836.347656 1101.925781 825.09375 1101.476562 822.394531 1105.976562 Z M 822.394531 1105.976562 "/>
<path style=" stroke:none;fill-rule:nonzero;fill:rgb(91.764706%,29.411765%,45.098039%);fill-opacity:1;" d="M 911.96875 1106.878906 C 910.621094 1109.128906 914.671875 1110.480469 920.523438 1110.480469 C 926.824219 1110.480469 931.777344 1109.128906 931.777344 1106.878906 C 931.777344 1104.628906 927.726562 1102.828125 923.222656 1102.828125 C 918.273438 1102.828125 913.320312 1104.628906 911.96875 1106.878906 Z M 911.96875 1106.878906 "/>
<path style=" stroke:none;fill-rule:nonzero;fill:rgb(91.764706%,29.411765%,45.098039%);fill-opacity:1;" d="M 1035.308594 1125.785156 C 1035.308594 1130.734375 1044.757812 1130.734375 1052.863281 1125.785156 C 1056.914062 1123.082031 1055.113281 1121.730469 1047.011719 1121.730469 C 1040.707031 1121.730469 1035.308594 1123.53125 1035.308594 1125.785156 Z M 1035.308594 1125.785156 "/>
</g>
</svg>
